<svg xmlns="http://www.w3.org/2000/svg" width="855" height="221" viewBox="0 0 855 221" font-family="ui-monospace, SFMono-Regular, Menlo, Consolas, &quot;Liberation Mono&quot;, monospace" font-size="11">
  <style>
    .wk { opacity: 0; animation: drop 0.5s ease-out forwards; }
    @keyframes drop {
      from { opacity: 0; transform: translateY(-14px); }
      to   { opacity: 1; transform: translateY(0); }
    }
    .fade { opacity: 0; animation: fadein 0.6s ease-out forwards; }
    @keyframes fadein { to { opacity: 1; } }
  </style>
  <rect x="0.5" y="0.5" width="854" height="220" rx="8" fill="#0d1117" stroke="#30363d"/>
  <text x="36" y="22" fill="#c9d1d9" font-size="13" font-weight="bold">386 contributions in the last year</text>
  <text x="28" y="71" text-anchor="end" fill="#8b949e">Mon</text>
  <text x="28" y="101" text-anchor="end" fill="#8b949e">Wed</text>
  <text x="28" y="131" text-anchor="end" fill="#8b949e">Fri</text>
  <text x="36" y="38" fill="#8b949e">Oct</text>
  <text x="96" y="38" fill="#8b949e">Nov</text>
  <text x="171" y="38" fill="#8b949e">Dec</text>
  <text x="231" y="38" fill="#8b949e">Jan</text>
  <text x="291" y="38" fill="#8b949e">Feb</text>
  <text x="351" y="38" fill="#8b949e">Mar</text>
  <text x="426" y="38" fill="#8b949e">Apr</text>
  <text x="486" y="38" fill="#8b949e">May</text>
  <text x="561" y="38" fill="#8b949e">Jun</text>
  <text x="621" y="38" fill="#8b949e">Jul</text>
  <text x="681" y="38" fill="#8b949e">Aug</text>
  <text x="756" y="38" fill="#8b949e">Sep</text>
  <g class="wk" style="animation-delay:0.000s">
    <rect x="36" y="46" width="12" height="12" rx="2.5" fill="#161b22"><title>0 on 2025-10-05</title></rect>
    <rect x="36" y="61" width="12" height="12" rx="2.5" fill="#161b22"><title>0 on 2025-10-06</title></rect>
    <rect x="36" y="76" width="12" height="12" rx="2.5" fill="#161b22"><title>0 on 2025-10-07</title></rect>
    <rect x="36" y="91" width="12" height="12" rx="2.5" fill="#161b22"><title>0 on 2025-10-08</title></rect>
    <rect x="36" y="106" width="12" height="12" rx="2.5" fill="#161b22"><title>0 on 2025-10-09</title></rect>
    <rect x="36" y="121" width="12" height="12" rx="2.5" fill="#161b22"><title>0 on 2025-10-10</title></rect>
    <rect x="36" y="136" width="12" height="12" rx="2.5" fill="#161b22"><title>0 on 2025-10-11</title></rect>
  </g>
  <g class="wk" style="animation-delay:0.035s">
    <rect x="51" y="46" width="12" height="12" rx="2.5" fill="#161b22"><title>0 on 2025-10-12</title></rect>
    <rect x="51" y="61" width="12" height="12" rx="2.5" fill="#161b22"><title>0 on 2025-10-13</title></rect>
    <rect x="51" y="76" width="12" height="12" rx="2.5" fill="#161b22"><title>0 on 2025-10-14</title></rect>
    <rect x="51" y="91" width="12" height="12" rx="2.5" fill="#161b22"><title>0 on 2025-10-15</title></rect>
    <rect x="51" y="106" width="12" height="12" rx="2.5" fill="#161b22"><title>0 on 2025-10-16</title></rect>
    <rect x="51" y="121" width="12" height="12" rx="2.5" fill="#161b22"><title>0 on 2025-10-17</title></rect>
    <rect x="51" y="136" width="12" height="12" rx="2.5" fill="#161b22"><title>0 on 2025-10-18</title></rect>
  </g>
  <g class="wk" style="animation-delay:0.070s">
    <rect x="66" y="46" width="12" height="12" rx="2.5" fill="#161b22"><title>0 on 2025-10-19</title></rect>
    <rect x="66" y="61" width="12" height="12" rx="2.5" fill="#161b22"><title>0 on 2025-10-20</title></rect>
    <rect x="66" y="76" width="12" height="12" rx="2.5" fill="#161b22"><title>0 on 2025-10-21</title></rect>
    <rect x="66" y="91" width="12" height="12" rx="2.5" fill="#161b22"><title>0 on 2025-10-22</title></rect>
    <rect x="66" y="106" width="12" height="12" rx="2.5" fill="#161b22"><title>0 on 2025-10-23</title></rect>
    <rect x="66" y="121" width="12" height="12" rx="2.5" fill="#161b22"><title>0 on 2025-10-24</title></rect>
    <rect x="66" y="136" width="12" height="12" rx="2.5" fill="#161b22"><title>0 on 2025-10-25</title></rect>
  </g>
  <g class="wk" style="animation-delay:0.105s">
    <rect x="81" y="46" width="12" height="12" rx="2.5" fill="#161b22"><title>0 on 2025-10-26</title></rect>
    <rect x="81" y="61" width="12" height="12" rx="2.5" fill="#161b22"><title>0 on 2025-10-27</title></rect>
    <rect x="81" y="76" width="12" height="12" rx="2.5" fill="#161b22"><title>0 on 2025-10-28</title></rect>
    <rect x="81" y="91" width="12" height="12" rx="2.5" fill="#161b22"><title>0 on 2025-10-29</title></rect>
    <rect x="81" y="106" width="12" height="12" rx="2.5" fill="#161b22"><title>0 on 2025-10-30</title></rect>
    <rect x="81" y="121" width="12" height="12" rx="2.5" fill="#161b22"><title>0 on 2025-10-31</title></rect>
    <rect x="81" y="136" width="12" height="12" rx="2.5" fill="#161b22"><title>0 on 2025-11-01</title></rect>
  </g>
  <g class="wk" style="animation-delay:0.140s">
    <rect x="96" y="46" width="12" height="12" rx="2.5" fill="#161b22"><title>0 on 2025-11-02</title></rect>
    <rect x="96" y="61" width="12" height="12" rx="2.5" fill="#161b22"><title>0 on 2025-11-03</title></rect>
    <rect x="96" y="76" width="12" height="12" rx="2.5" fill="#161b22"><title>0 on 2025-11-04</title></rect>
    <rect x="96" y="91" width="12" height="12" rx="2.5" fill="#161b22"><title>0 on 2025-11-05</title></rect>
    <rect x="96" y="106" width="12" height="12" rx="2.5" fill="#161b22"><title>0 on 2025-11-06</title></rect>
    <rect x="96" y="121" width="12" height="12" rx="2.5" fill="#161b22"><title>0 on 2025-11-07</title></rect>
    <rect x="96" y="136" width="12" height="12" rx="2.5" fill="#161b22"><title>0 on 2025-11-08</title></rect>
  </g>
  <g class="wk" style="animation-delay:0.175s">
    <rect x="111" y="46" width="12" height="12" rx="2.5" fill="#161b22"><title>0 on 2025-11-09</title></rect>
    <rect x="111" y="61" width="12" height="12" rx="2.5" fill="#161b22"><title>0 on 2025-11-10</title></rect>
    <rect x="111" y="76" width="12" height="12" rx="2.5" fill="#161b22"><title>0 on 2025-11-11</title></rect>
    <rect x="111" y="91" width="12" height="12" rx="2.5" fill="#161b22"><title>0 on 2025-11-12</title></rect>
    <rect x="111" y="106" width="12" height="12" rx="2.5" fill="#161b22"><title>0 on 2025-11-13</title></rect>
    <rect x="111" y="121" width="12" height="12" rx="2.5" fill="#161b22"><title>0 on 2025-11-14</title></rect>
    <rect x="111" y="136" width="12" height="12" rx="2.5" fill="#161b22"><title>0 on 2025-11-15</title></rect>
  </g>
  <g class="wk" style="animation-delay:0.210s">
    <rect x="126" y="46" width="12" height="12" rx="2.5" fill="#161b22"><title>0 on 2025-11-16</title></rect>
    <rect x="126" y="61" width="12" height="12" rx="2.5" fill="#161b22"><title>0 on 2025-11-17</title></rect>
    <rect x="126" y="76" width="12" height="12" rx="2.5" fill="#161b22"><title>0 on 2025-11-18</title></rect>
    <rect x="126" y="91" width="12" height="12" rx="2.5" fill="#161b22"><title>0 on 2025-11-19</title></rect>
    <rect x="126" y="106" width="12" height="12" rx="2.5" fill="#161b22"><title>0 on 2025-11-20</title></rect>
    <rect x="126" y="121" width="12" height="12" rx="2.5" fill="#161b22"><title>0 on 2025-11-21</title></rect>
    <rect x="126" y="136" width="12" height="12" rx="2.5" fill="#161b22"><title>0 on 2025-11-22</title></rect>
  </g>
  <g class="wk" style="animation-delay:0.245s">
    <rect x="141" y="46" width="12" height="12" rx="2.5" fill="#161b22"><title>0 on 2025-11-23</title></rect>
    <rect x="141" y="61" width="12" height="12" rx="2.5" fill="#161b22"><title>0 on 2025-11-24</title></rect>
    <rect x="141" y="76" width="12" height="12" rx="2.5" fill="#161b22"><title>0 on 2025-11-25</title></rect>
    <rect x="141" y="91" width="12" height="12" rx="2.5" fill="#161b22"><title>0 on 2025-11-26</title></rect>
    <rect x="141" y="106" width="12" height="12" rx="2.5" fill="#161b22"><title>0 on 2025-11-27</title></rect>
    <rect x="141" y="121" width="12" height="12" rx="2.5" fill="#161b22"><title>0 on 2025-11-28</title></rect>
    <rect x="141" y="136" width="12" height="12" rx="2.5" fill="#161b22"><title>0 on 2025-11-29</title></rect>
  </g>
  <g class="wk" style="animation-delay:0.280s">
    <rect x="156" y="46" width="12" height="12" rx="2.5" fill="#161b22"><title>0 on 2025-11-30</title></rect>
    <rect x="156" y="61" width="12" height="12" rx="2.5" fill="#0e4429"><title>2 on 2025-12-01</title></rect>
    <rect x="156" y="76" width="12" height="12" rx="2.5" fill="#006d32"><title>5 on 2025-12-02</title></rect>
    <rect x="156" y="91" width="12" height="12" rx="2.5" fill="#006d32"><title>4 on 2025-12-03</title></rect>
    <rect x="156" y="106" width="12" height="12" rx="2.5" fill="#006d32"><title>7 on 2025-12-04</title></rect>
    <rect x="156" y="121" width="12" height="12" rx="2.5" fill="#161b22"><title>0 on 2025-12-05</title></rect>
    <rect x="156" y="136" width="12" height="12" rx="2.5" fill="#161b22"><title>0 on 2025-12-06</title></rect>
  </g>
  <g class="wk" style="animation-delay:0.315s">
    <rect x="171" y="46" width="12" height="12" rx="2.5" fill="#161b22"><title>0 on 2025-12-07</title></rect>
    <rect x="171" y="61" width="12" height="12" rx="2.5" fill="#161b22"><title>0 on 2025-12-08</title></rect>
    <rect x="171" y="76" width="12" height="12" rx="2.5" fill="#0e4429"><title>1 on 2025-12-09</title></rect>
    <rect x="171" y="91" width="12" height="12" rx="2.5" fill="#0e4429"><title>2 on 2025-12-10</title></rect>
    <rect x="171" y="106" width="12" height="12" rx="2.5" fill="#0e4429"><title>3 on 2025-12-11</title></rect>
    <rect x="171" y="121" width="12" height="12" rx="2.5" fill="#161b22"><title>0 on 2025-12-12</title></rect>
    <rect x="171" y="136" width="12" height="12" rx="2.5" fill="#161b22"><title>0 on 2025-12-13</title></rect>
  </g>
  <g class="wk" style="animation-delay:0.350s">
    <rect x="186" y="46" width="12" height="12" rx="2.5" fill="#161b22"><title>0 on 2025-12-14</title></rect>
    <rect x="186" y="61" width="12" height="12" rx="2.5" fill="#006d32"><title>5 on 2025-12-15</title></rect>
    <rect x="186" y="76" width="12" height="12" rx="2.5" fill="#161b22"><title>0 on 2025-12-16</title></rect>
    <rect x="186" y="91" width="12" height="12" rx="2.5" fill="#161b22"><title>0 on 2025-12-17</title></rect>
    <rect x="186" y="106" width="12" height="12" rx="2.5" fill="#0e4429"><title>1 on 2025-12-18</title></rect>
    <rect x="186" y="121" width="12" height="12" rx="2.5" fill="#161b22"><title>0 on 2025-12-19</title></rect>
    <rect x="186" y="136" width="12" height="12" rx="2.5" fill="#161b22"><title>0 on 2025-12-20</title></rect>
  </g>
  <g class="wk" style="animation-delay:0.385s">
    <rect x="201" y="46" width="12" height="12" rx="2.5" fill="#161b22"><title>0 on 2025-12-21</title></rect>
    <rect x="201" y="61" width="12" height="12" rx="2.5" fill="#161b22"><title>0 on 2025-12-22</title></rect>
    <rect x="201" y="76" width="12" height="12" rx="2.5" fill="#161b22"><title>0 on 2025-12-23</title></rect>
    <rect x="201" y="91" width="12" height="12" rx="2.5" fill="#161b22"><title>0 on 2025-12-24</title></rect>
    <rect x="201" y="106" width="12" height="12" rx="2.5" fill="#161b22"><title>0 on 2025-12-25</title></rect>
    <rect x="201" y="121" width="12" height="12" rx="2.5" fill="#161b22"><title>0 on 2025-12-26</title></rect>
    <rect x="201" y="136" width="12" height="12" rx="2.5" fill="#161b22"><title>0 on 2025-12-27</title></rect>
  </g>
  <g class="wk" style="animation-delay:0.420s">
    <rect x="216" y="46" width="12" height="12" rx="2.5" fill="#161b22"><title>0 on 2025-12-28</title></rect>
    <rect x="216" y="61" width="12" height="12" rx="2.5" fill="#161b22"><title>0 on 2025-12-29</title></rect>
    <rect x="216" y="76" width="12" height="12" rx="2.5" fill="#161b22"><title>0 on 2025-12-30</title></rect>
    <rect x="216" y="91" width="12" height="12" rx="2.5" fill="#161b22"><title>0 on 2025-12-31</title></rect>
    <rect x="216" y="106" width="12" height="12" rx="2.5" fill="#161b22"><title>0 on 2026-01-01</title></rect>
    <rect x="216" y="121" width="12" height="12" rx="2.5" fill="#161b22"><title>0 on 2026-01-02</title></rect>
    <rect x="216" y="136" width="12" height="12" rx="2.5" fill="#161b22"><title>0 on 2026-01-03</title></rect>
  </g>
  <g class="wk" style="animation-delay:0.455s">
    <rect x="231" y="46" width="12" height="12" rx="2.5" fill="#006d32"><title>6 on 2026-01-04</title></rect>
    <rect x="231" y="61" width="12" height="12" rx="2.5" fill="#006d32"><title>7 on 2026-01-05</title></rect>
    <rect x="231" y="76" width="12" height="12" rx="2.5" fill="#006d32"><title>6 on 2026-01-06</title></rect>
    <rect x="231" y="91" width="12" height="12" rx="2.5" fill="#161b22"><title>0 on 2026-01-07</title></rect>
    <rect x="231" y="106" width="12" height="12" rx="2.5" fill="#26a641"><title>8 on 2026-01-08</title></rect>
    <rect x="231" y="121" width="12" height="12" rx="2.5" fill="#0e4429"><title>1 on 2026-01-09</title></rect>
    <rect x="231" y="136" width="12" height="12" rx="2.5" fill="#161b22"><title>0 on 2026-01-10</title></rect>
  </g>
  <g class="wk" style="animation-delay:0.490s">
    <rect x="246" y="46" width="12" height="12" rx="2.5" fill="#161b22"><title>0 on 2026-01-11</title></rect>
    <rect x="246" y="61" width="12" height="12" rx="2.5" fill="#0e4429"><title>1 on 2026-01-12</title></rect>
    <rect x="246" y="76" width="12" height="12" rx="2.5" fill="#006d32"><title>4 on 2026-01-13</title></rect>
    <rect x="246" y="91" width="12" height="12" rx="2.5" fill="#0e4429"><title>2 on 2026-01-14</title></rect>
    <rect x="246" y="106" width="12" height="12" rx="2.5" fill="#0e4429"><title>3 on 2026-01-15</title></rect>
    <rect x="246" y="121" width="12" height="12" rx="2.5" fill="#161b22"><title>0 on 2026-01-16</title></rect>
    <rect x="246" y="136" width="12" height="12" rx="2.5" fill="#26a641"><title>8 on 2026-01-17</title></rect>
  </g>
  <g class="wk" style="animation-delay:0.525s">
    <rect x="261" y="46" width="12" height="12" rx="2.5" fill="#0e4429"><title>3 on 2026-01-18</title></rect>
    <rect x="261" y="61" width="12" height="12" rx="2.5" fill="#0e4429"><title>2 on 2026-01-19</title></rect>
    <rect x="261" y="76" width="12" height="12" rx="2.5" fill="#006d32"><title>5 on 2026-01-20</title></rect>
    <rect x="261" y="91" width="12" height="12" rx="2.5" fill="#26a641"><title>9 on 2026-01-21</title></rect>
    <rect x="261" y="106" width="12" height="12" rx="2.5" fill="#161b22"><title>0 on 2026-01-22</title></rect>
    <rect x="261" y="121" width="12" height="12" rx="2.5" fill="#161b22"><title>0 on 2026-01-23</title></rect>
    <rect x="261" y="136" width="12" height="12" rx="2.5" fill="#161b22"><title>0 on 2026-01-24</title></rect>
  </g>
  <g class="wk" style="animation-delay:0.560s">
    <rect x="276" y="46" width="12" height="12" rx="2.5" fill="#161b22"><title>0 on 2026-01-25</title></rect>
    <rect x="276" y="61" width="12" height="12" rx="2.5" fill="#161b22"><title>0 on 2026-01-26</title></rect>
    <rect x="276" y="76" width="12" height="12" rx="2.5" fill="#161b22"><title>0 on 2026-01-27</title></rect>
    <rect x="276" y="91" width="12" height="12" rx="2.5" fill="#39d353"><title>13 on 2026-01-28</title></rect>
    <rect x="276" y="106" width="12" height="12" rx="2.5" fill="#161b22"><title>0 on 2026-01-29</title></rect>
    <rect x="276" y="121" width="12" height="12" rx="2.5" fill="#161b22"><title>0 on 2026-01-30</title></rect>
    <rect x="276" y="136" width="12" height="12" rx="2.5" fill="#161b22"><title>0 on 2026-01-31</title></rect>
  </g>
  <g class="wk" style="animation-delay:0.595s">
    <rect x="291" y="46" width="12" height="12" rx="2.5" fill="#39d353"><title>22 on 2026-02-01</title></rect>
    <rect x="291" y="61" width="12" height="12" rx="2.5" fill="#0e4429"><title>2 on 2026-02-02</title></rect>
    <rect x="291" y="76" width="12" height="12" rx="2.5" fill="#161b22"><title>0 on 2026-02-03</title></rect>
    <rect x="291" y="91" width="12" height="12" rx="2.5" fill="#161b22"><title>0 on 2026-02-04</title></rect>
    <rect x="291" y="106" width="12" height="12" rx="2.5" fill="#006d32"><title>4 on 2026-02-05</title></rect>
    <rect x="291" y="121" width="12" height="12" rx="2.5" fill="#0e4429"><title>1 on 2026-02-06</title></rect>
    <rect x="291" y="136" width="12" height="12" rx="2.5" fill="#161b22"><title>0 on 2026-02-07</title></rect>
  </g>
  <g class="wk" style="animation-delay:0.630s">
    <rect x="306" y="46" width="12" height="12" rx="2.5" fill="#161b22"><title>0 on 2026-02-08</title></rect>
    <rect x="306" y="61" width="12" height="12" rx="2.5" fill="#161b22"><title>0 on 2026-02-09</title></rect>
    <rect x="306" y="76" width="12" height="12" rx="2.5" fill="#006d32"><title>4 on 2026-02-10</title></rect>
    <rect x="306" y="91" width="12" height="12" rx="2.5" fill="#161b22"><title>0 on 2026-02-11</title></rect>
    <rect x="306" y="106" width="12" height="12" rx="2.5" fill="#161b22"><title>0 on 2026-02-12</title></rect>
    <rect x="306" y="121" width="12" height="12" rx="2.5" fill="#161b22"><title>0 on 2026-02-13</title></rect>
    <rect x="306" y="136" width="12" height="12" rx="2.5" fill="#161b22"><title>0 on 2026-02-14</title></rect>
  </g>
  <g class="wk" style="animation-delay:0.665s">
    <rect x="321" y="46" width="12" height="12" rx="2.5" fill="#26a641"><title>8 on 2026-02-15</title></rect>
    <rect x="321" y="61" width="12" height="12" rx="2.5" fill="#39d353"><title>23 on 2026-02-16</title></rect>
    <rect x="321" y="76" width="12" height="12" rx="2.5" fill="#39d353"><title>14 on 2026-02-17</title></rect>
    <rect x="321" y="91" width="12" height="12" rx="2.5" fill="#0e4429"><title>1 on 2026-02-18</title></rect>
    <rect x="321" y="106" width="12" height="12" rx="2.5" fill="#0e4429"><title>3 on 2026-02-19</title></rect>
    <rect x="321" y="121" width="12" height="12" rx="2.5" fill="#161b22"><title>0 on 2026-02-20</title></rect>
    <rect x="321" y="136" width="12" height="12" rx="2.5" fill="#161b22"><title>0 on 2026-02-21</title></rect>
  </g>
  <g class="wk" style="animation-delay:0.700s">
    <rect x="336" y="46" width="12" height="12" rx="2.5" fill="#161b22"><title>0 on 2026-02-22</title></rect>
    <rect x="336" y="61" width="12" height="12" rx="2.5" fill="#0e4429"><title>1 on 2026-02-23</title></rect>
    <rect x="336" y="76" width="12" height="12" rx="2.5" fill="#161b22"><title>0 on 2026-02-24</title></rect>
    <rect x="336" y="91" width="12" height="12" rx="2.5" fill="#161b22"><title>0 on 2026-02-25</title></rect>
    <rect x="336" y="106" width="12" height="12" rx="2.5" fill="#161b22"><title>0 on 2026-02-26</title></rect>
    <rect x="336" y="121" width="12" height="12" rx="2.5" fill="#161b22"><title>0 on 2026-02-27</title></rect>
    <rect x="336" y="136" width="12" height="12" rx="2.5" fill="#161b22"><title>0 on 2026-02-28</title></rect>
  </g>
  <g class="wk" style="animation-delay:0.735s">
    <rect x="351" y="46" width="12" height="12" rx="2.5" fill="#161b22"><title>0 on 2026-03-01</title></rect>
    <rect x="351" y="61" width="12" height="12" rx="2.5" fill="#161b22"><title>0 on 2026-03-02</title></rect>
    <rect x="351" y="76" width="12" height="12" rx="2.5" fill="#161b22"><title>0 on 2026-03-03</title></rect>
    <rect x="351" y="91" width="12" height="12" rx="2.5" fill="#161b22"><title>0 on 2026-03-04</title></rect>
    <rect x="351" y="106" width="12" height="12" rx="2.5" fill="#161b22"><title>0 on 2026-03-05</title></rect>
    <rect x="351" y="121" width="12" height="12" rx="2.5" fill="#0e4429"><title>2 on 2026-03-06</title></rect>
    <rect x="351" y="136" width="12" height="12" rx="2.5" fill="#161b22"><title>0 on 2026-03-07</title></rect>
  </g>
  <g class="wk" style="animation-delay:0.770s">
    <rect x="366" y="46" width="12" height="12" rx="2.5" fill="#161b22"><title>0 on 2026-03-08</title></rect>
    <rect x="366" y="61" width="12" height="12" rx="2.5" fill="#006d32"><title>6 on 2026-03-09</title></rect>
    <rect x="366" y="76" width="12" height="12" rx="2.5" fill="#0e4429"><title>3 on 2026-03-10</title></rect>
    <rect x="366" y="91" width="12" height="12" rx="2.5" fill="#161b22"><title>0 on 2026-03-11</title></rect>
    <rect x="366" y="106" width="12" height="12" rx="2.5" fill="#161b22"><title>0 on 2026-03-12</title></rect>
    <rect x="366" y="121" width="12" height="12" rx="2.5" fill="#161b22"><title>0 on 2026-03-13</title></rect>
    <rect x="366" y="136" width="12" height="12" rx="2.5" fill="#161b22"><title>0 on 2026-03-14</title></rect>
  </g>
  <g class="wk" style="animation-delay:0.805s">
    <rect x="381" y="46" width="12" height="12" rx="2.5" fill="#161b22"><title>0 on 2026-03-15</title></rect>
    <rect x="381" y="61" width="12" height="12" rx="2.5" fill="#161b22"><title>0 on 2026-03-16</title></rect>
    <rect x="381" y="76" width="12" height="12" rx="2.5" fill="#161b22"><title>0 on 2026-03-17</title></rect>
    <rect x="381" y="91" width="12" height="12" rx="2.5" fill="#161b22"><title>0 on 2026-03-18</title></rect>
    <rect x="381" y="106" width="12" height="12" rx="2.5" fill="#161b22"><title>0 on 2026-03-19</title></rect>
    <rect x="381" y="121" width="12" height="12" rx="2.5" fill="#006d32"><title>4 on 2026-03-20</title></rect>
    <rect x="381" y="136" width="12" height="12" rx="2.5" fill="#161b22"><title>0 on 2026-03-21</title></rect>
  </g>
  <g class="wk" style="animation-delay:0.840s">
    <rect x="396" y="46" width="12" height="12" rx="2.5" fill="#161b22"><title>0 on 2026-03-22</title></rect>
    <rect x="396" y="61" width="12" height="12" rx="2.5" fill="#161b22"><title>0 on 2026-03-23</title></rect>
    <rect x="396" y="76" width="12" height="12" rx="2.5" fill="#161b22"><title>0 on 2026-03-24</title></rect>
    <rect x="396" y="91" width="12" height="12" rx="2.5" fill="#161b22"><title>0 on 2026-03-25</title></rect>
    <rect x="396" y="106" width="12" height="12" rx="2.5" fill="#0e4429"><title>1 on 2026-03-26</title></rect>
    <rect x="396" y="121" width="12" height="12" rx="2.5" fill="#161b22"><title>0 on 2026-03-27</title></rect>
    <rect x="396" y="136" width="12" height="12" rx="2.5" fill="#161b22"><title>0 on 2026-03-28</title></rect>
  </g>
  <g class="wk" style="animation-delay:0.875s">
    <rect x="411" y="46" width="12" height="12" rx="2.5" fill="#161b22"><title>0 on 2026-03-29</title></rect>
    <rect x="411" y="61" width="12" height="12" rx="2.5" fill="#161b22"><title>0 on 2026-03-30</title></rect>
    <rect x="411" y="76" width="12" height="12" rx="2.5" fill="#161b22"><title>0 on 2026-03-31</title></rect>
    <rect x="411" y="91" width="12" height="12" rx="2.5" fill="#0e4429"><title>1 on 2026-04-01</title></rect>
    <rect x="411" y="106" width="12" height="12" rx="2.5" fill="#161b22"><title>0 on 2026-04-02</title></rect>
    <rect x="411" y="121" width="12" height="12" rx="2.5" fill="#161b22"><title>0 on 2026-04-03</title></rect>
    <rect x="411" y="136" width="12" height="12" rx="2.5" fill="#161b22"><title>0 on 2026-04-04</title></rect>
  </g>
  <g class="wk" style="animation-delay:0.910s">
    <rect x="426" y="46" width="12" height="12" rx="2.5" fill="#161b22"><title>0 on 2026-04-05</title></rect>
    <rect x="426" y="61" width="12" height="12" rx="2.5" fill="#161b22"><title>0 on 2026-04-06</title></rect>
    <rect x="426" y="76" width="12" height="12" rx="2.5" fill="#161b22"><title>0 on 2026-04-07</title></rect>
    <rect x="426" y="91" width="12" height="12" rx="2.5" fill="#161b22"><title>0 on 2026-04-08</title></rect>
    <rect x="426" y="106" width="12" height="12" rx="2.5" fill="#161b22"><title>0 on 2026-04-09</title></rect>
    <rect x="426" y="121" width="12" height="12" rx="2.5" fill="#161b22"><title>0 on 2026-04-10</title></rect>
    <rect x="426" y="136" width="12" height="12" rx="2.5" fill="#161b22"><title>0 on 2026-04-11</title></rect>
  </g>
  <g class="wk" style="animation-delay:0.945s">
    <rect x="441" y="46" width="12" height="12" rx="2.5" fill="#161b22"><title>0 on 2026-04-12</title></rect>
    <rect x="441" y="61" width="12" height="12" rx="2.5" fill="#161b22"><title>0 on 2026-04-13</title></rect>
    <rect x="441" y="76" width="12" height="12" rx="2.5" fill="#161b22"><title>0 on 2026-04-14</title></rect>
    <rect x="441" y="91" width="12" height="12" rx="2.5" fill="#161b22"><title>0 on 2026-04-15</title></rect>
    <rect x="441" y="106" width="12" height="12" rx="2.5" fill="#161b22"><title>0 on 2026-04-16</title></rect>
    <rect x="441" y="121" width="12" height="12" rx="2.5" fill="#161b22"><title>0 on 2026-04-17</title></rect>
    <rect x="441" y="136" width="12" height="12" rx="2.5" fill="#161b22"><title>0 on 2026-04-18</title></rect>
  </g>
  <g class="wk" style="animation-delay:0.980s">
    <rect x="456" y="46" width="12" height="12" rx="2.5" fill="#161b22"><title>0 on 2026-04-19</title></rect>
    <rect x="456" y="61" width="12" height="12" rx="2.5" fill="#161b22"><title>0 on 2026-04-20</title></rect>
    <rect x="456" y="76" width="12" height="12" rx="2.5" fill="#161b22"><title>0 on 2026-04-21</title></rect>
    <rect x="456" y="91" width="12" height="12" rx="2.5" fill="#26a641"><title>10 on 2026-04-22</title></rect>
    <rect x="456" y="106" width="12" height="12" rx="2.5" fill="#161b22"><title>0 on 2026-04-23</title></rect>
    <rect x="456" y="121" width="12" height="12" rx="2.5" fill="#161b22"><title>0 on 2026-04-24</title></rect>
    <rect x="456" y="136" width="12" height="12" rx="2.5" fill="#161b22"><title>0 on 2026-04-25</title></rect>
  </g>
  <g class="wk" style="animation-delay:1.015s">
    <rect x="471" y="46" width="12" height="12" rx="2.5" fill="#161b22"><title>0 on 2026-04-26</title></rect>
    <rect x="471" y="61" width="12" height="12" rx="2.5" fill="#161b22"><title>0 on 2026-04-27</title></rect>
    <rect x="471" y="76" width="12" height="12" rx="2.5" fill="#0e4429"><title>2 on 2026-04-28</title></rect>
    <rect x="471" y="91" width="12" height="12" rx="2.5" fill="#161b22"><title>0 on 2026-04-29</title></rect>
    <rect x="471" y="106" width="12" height="12" rx="2.5" fill="#0e4429"><title>3 on 2026-04-30</title></rect>
    <rect x="471" y="121" width="12" height="12" rx="2.5" fill="#161b22"><title>0 on 2026-05-01</title></rect>
    <rect x="471" y="136" width="12" height="12" rx="2.5" fill="#161b22"><title>0 on 2026-05-02</title></rect>
  </g>
  <g class="wk" style="animation-delay:1.050s">
    <rect x="486" y="46" width="12" height="12" rx="2.5" fill="#161b22"><title>0 on 2026-05-03</title></rect>
    <rect x="486" y="61" width="12" height="12" rx="2.5" fill="#0e4429"><title>1 on 2026-05-04</title></rect>
    <rect x="486" y="76" width="12" height="12" rx="2.5" fill="#161b22"><title>0 on 2026-05-05</title></rect>
    <rect x="486" y="91" width="12" height="12" rx="2.5" fill="#0e4429"><title>3 on 2026-05-06</title></rect>
    <rect x="486" y="106" width="12" height="12" rx="2.5" fill="#161b22"><title>0 on 2026-05-07</title></rect>
    <rect x="486" y="121" width="12" height="12" rx="2.5" fill="#161b22"><title>0 on 2026-05-08</title></rect>
    <rect x="486" y="136" width="12" height="12" rx="2.5" fill="#161b22"><title>0 on 2026-05-09</title></rect>
  </g>
  <g class="wk" style="animation-delay:1.085s">
    <rect x="501" y="46" width="12" height="12" rx="2.5" fill="#161b22"><title>0 on 2026-05-10</title></rect>
    <rect x="501" y="61" width="12" height="12" rx="2.5" fill="#161b22"><title>0 on 2026-05-11</title></rect>
    <rect x="501" y="76" width="12" height="12" rx="2.5" fill="#161b22"><title>0 on 2026-05-12</title></rect>
    <rect x="501" y="91" width="12" height="12" rx="2.5" fill="#161b22"><title>0 on 2026-05-13</title></rect>
    <rect x="501" y="106" width="12" height="12" rx="2.5" fill="#161b22"><title>0 on 2026-05-14</title></rect>
    <rect x="501" y="121" width="12" height="12" rx="2.5" fill="#161b22"><title>0 on 2026-05-15</title></rect>
    <rect x="501" y="136" width="12" height="12" rx="2.5" fill="#161b22"><title>0 on 2026-05-16</title></rect>
  </g>
  <g class="wk" style="animation-delay:1.120s">
    <rect x="516" y="46" width="12" height="12" rx="2.5" fill="#161b22"><title>0 on 2026-05-17</title></rect>
    <rect x="516" y="61" width="12" height="12" rx="2.5" fill="#006d32"><title>6 on 2026-05-18</title></rect>
    <rect x="516" y="76" width="12" height="12" rx="2.5" fill="#161b22"><title>0 on 2026-05-19</title></rect>
    <rect x="516" y="91" width="12" height="12" rx="2.5" fill="#0e4429"><title>2 on 2026-05-20</title></rect>
    <rect x="516" y="106" width="12" height="12" rx="2.5" fill="#161b22"><title>0 on 2026-05-21</title></rect>
    <rect x="516" y="121" width="12" height="12" rx="2.5" fill="#161b22"><title>0 on 2026-05-22</title></rect>
    <rect x="516" y="136" width="12" height="12" rx="2.5" fill="#161b22"><title>0 on 2026-05-23</title></rect>
  </g>
  <g class="wk" style="animation-delay:1.155s">
    <rect x="531" y="46" width="12" height="12" rx="2.5" fill="#161b22"><title>0 on 2026-05-24</title></rect>
    <rect x="531" y="61" width="12" height="12" rx="2.5" fill="#161b22"><title>0 on 2026-05-25</title></rect>
    <rect x="531" y="76" width="12" height="12" rx="2.5" fill="#161b22"><title>0 on 2026-05-26</title></rect>
    <rect x="531" y="91" width="12" height="12" rx="2.5" fill="#161b22"><title>0 on 2026-05-27</title></rect>
    <rect x="531" y="106" width="12" height="12" rx="2.5" fill="#161b22"><title>0 on 2026-05-28</title></rect>
    <rect x="531" y="121" width="12" height="12" rx="2.5" fill="#161b22"><title>0 on 2026-05-29</title></rect>
    <rect x="531" y="136" width="12" height="12" rx="2.5" fill="#161b22"><title>0 on 2026-05-30</title></rect>
  </g>
  <g class="wk" style="animation-delay:1.190s">
    <rect x="546" y="46" width="12" height="12" rx="2.5" fill="#161b22"><title>0 on 2026-05-31</title></rect>
    <rect x="546" y="61" width="12" height="12" rx="2.5" fill="#161b22"><title>0 on 2026-06-01</title></rect>
    <rect x="546" y="76" width="12" height="12" rx="2.5" fill="#161b22"><title>0 on 2026-06-02</title></rect>
    <rect x="546" y="91" width="12" height="12" rx="2.5" fill="#161b22"><title>0 on 2026-06-03</title></rect>
    <rect x="546" y="106" width="12" height="12" rx="2.5" fill="#161b22"><title>0 on 2026-06-04</title></rect>
    <rect x="546" y="121" width="12" height="12" rx="2.5" fill="#161b22"><title>0 on 2026-06-05</title></rect>
    <rect x="546" y="136" width="12" height="12" rx="2.5" fill="#161b22"><title>0 on 2026-06-06</title></rect>
  </g>
  <g class="wk" style="animation-delay:1.225s">
    <rect x="561" y="46" width="12" height="12" rx="2.5" fill="#161b22"><title>0 on 2026-06-07</title></rect>
    <rect x="561" y="61" width="12" height="12" rx="2.5" fill="#161b22"><title>0 on 2026-06-08</title></rect>
    <rect x="561" y="76" width="12" height="12" rx="2.5" fill="#0e4429"><title>1 on 2026-06-09</title></rect>
    <rect x="561" y="91" width="12" height="12" rx="2.5" fill="#161b22"><title>0 on 2026-06-10</title></rect>
    <rect x="561" y="106" width="12" height="12" rx="2.5" fill="#161b22"><title>0 on 2026-06-11</title></rect>
    <rect x="561" y="121" width="12" height="12" rx="2.5" fill="#161b22"><title>0 on 2026-06-12</title></rect>
    <rect x="561" y="136" width="12" height="12" rx="2.5" fill="#161b22"><title>0 on 2026-06-13</title></rect>
  </g>
  <g class="wk" style="animation-delay:1.260s">
    <rect x="576" y="46" width="12" height="12" rx="2.5" fill="#161b22"><title>0 on 2026-06-14</title></rect>
    <rect x="576" y="61" width="12" height="12" rx="2.5" fill="#161b22"><title>0 on 2026-06-15</title></rect>
    <rect x="576" y="76" width="12" height="12" rx="2.5" fill="#161b22"><title>0 on 2026-06-16</title></rect>
    <rect x="576" y="91" width="12" height="12" rx="2.5" fill="#161b22"><title>0 on 2026-06-17</title></rect>
    <rect x="576" y="106" width="12" height="12" rx="2.5" fill="#161b22"><title>0 on 2026-06-18</title></rect>
    <rect x="576" y="121" width="12" height="12" rx="2.5" fill="#161b22"><title>0 on 2026-06-19</title></rect>
    <rect x="576" y="136" width="12" height="12" rx="2.5" fill="#161b22"><title>0 on 2026-06-20</title></rect>
  </g>
  <g class="wk" style="animation-delay:1.295s">
    <rect x="591" y="46" width="12" height="12" rx="2.5" fill="#161b22"><title>0 on 2026-06-21</title></rect>
    <rect x="591" y="61" width="12" height="12" rx="2.5" fill="#161b22"><title>0 on 2026-06-22</title></rect>
    <rect x="591" y="76" width="12" height="12" rx="2.5" fill="#161b22"><title>0 on 2026-06-23</title></rect>
    <rect x="591" y="91" width="12" height="12" rx="2.5" fill="#161b22"><title>0 on 2026-06-24</title></rect>
    <rect x="591" y="106" width="12" height="12" rx="2.5" fill="#161b22"><title>0 on 2026-06-25</title></rect>
    <rect x="591" y="121" width="12" height="12" rx="2.5" fill="#161b22"><title>0 on 2026-06-26</title></rect>
    <rect x="591" y="136" width="12" height="12" rx="2.5" fill="#0e4429"><title>1 on 2026-06-27</title></rect>
  </g>
  <g class="wk" style="animation-delay:1.330s">
    <rect x="606" y="46" width="12" height="12" rx="2.5" fill="#161b22"><title>0 on 2026-06-28</title></rect>
    <rect x="606" y="61" width="12" height="12" rx="2.5" fill="#161b22"><title>0 on 2026-06-29</title></rect>
    <rect x="606" y="76" width="12" height="12" rx="2.5" fill="#161b22"><title>0 on 2026-06-30</title></rect>
    <rect x="606" y="91" width="12" height="12" rx="2.5" fill="#161b22"><title>0 on 2026-07-01</title></rect>
    <rect x="606" y="106" width="12" height="12" rx="2.5" fill="#161b22"><title>0 on 2026-07-02</title></rect>
    <rect x="606" y="121" width="12" height="12" rx="2.5" fill="#161b22"><title>0 on 2026-07-03</title></rect>
    <rect x="606" y="136" width="12" height="12" rx="2.5" fill="#161b22"><title>0 on 2026-07-04</title></rect>
  </g>
  <g class="wk" style="animation-delay:1.365s">
    <rect x="621" y="46" width="12" height="12" rx="2.5" fill="#161b22"><title>0 on 2026-07-05</title></rect>
    <rect x="621" y="61" width="12" height="12" rx="2.5" fill="#161b22"><title>0 on 2026-07-06</title></rect>
    <rect x="621" y="76" width="12" height="12" rx="2.5" fill="#0e4429"><title>2 on 2026-07-07</title></rect>
    <rect x="621" y="91" width="12" height="12" rx="2.5" fill="#161b22"><title>0 on 2026-07-08</title></rect>
    <rect x="621" y="106" width="12" height="12" rx="2.5" fill="#161b22"><title>0 on 2026-07-09</title></rect>
    <rect x="621" y="121" width="12" height="12" rx="2.5" fill="#161b22"><title>0 on 2026-07-10</title></rect>
    <rect x="621" y="136" width="12" height="12" rx="2.5" fill="#161b22"><title>0 on 2026-07-11</title></rect>
  </g>
  <g class="wk" style="animation-delay:1.400s">
    <rect x="636" y="46" width="12" height="12" rx="2.5" fill="#161b22"><title>0 on 2026-07-12</title></rect>
    <rect x="636" y="61" width="12" height="12" rx="2.5" fill="#161b22"><title>0 on 2026-07-13</title></rect>
    <rect x="636" y="76" width="12" height="12" rx="2.5" fill="#161b22"><title>0 on 2026-07-14</title></rect>
    <rect x="636" y="91" width="12" height="12" rx="2.5" fill="#161b22"><title>0 on 2026-07-15</title></rect>
    <rect x="636" y="106" width="12" height="12" rx="2.5" fill="#161b22"><title>0 on 2026-07-16</title></rect>
    <rect x="636" y="121" width="12" height="12" rx="2.5" fill="#161b22"><title>0 on 2026-07-17</title></rect>
    <rect x="636" y="136" width="12" height="12" rx="2.5" fill="#161b22"><title>0 on 2026-07-18</title></rect>
  </g>
  <g class="wk" style="animation-delay:1.435s">
    <rect x="651" y="46" width="12" height="12" rx="2.5" fill="#161b22"><title>0 on 2026-07-19</title></rect>
    <rect x="651" y="61" width="12" height="12" rx="2.5" fill="#161b22"><title>0 on 2026-07-20</title></rect>
    <rect x="651" y="76" width="12" height="12" rx="2.5" fill="#161b22"><title>0 on 2026-07-21</title></rect>
    <rect x="651" y="91" width="12" height="12" rx="2.5" fill="#161b22"><title>0 on 2026-07-22</title></rect>
    <rect x="651" y="106" width="12" height="12" rx="2.5" fill="#161b22"><title>0 on 2026-07-23</title></rect>
    <rect x="651" y="121" width="12" height="12" rx="2.5" fill="#161b22"><title>0 on 2026-07-24</title></rect>
    <rect x="651" y="136" width="12" height="12" rx="2.5" fill="#161b22"><title>0 on 2026-07-25</title></rect>
  </g>
  <g class="wk" style="animation-delay:1.470s">
    <rect x="666" y="46" width="12" height="12" rx="2.5" fill="#161b22"><title>0 on 2026-07-26</title></rect>
    <rect x="666" y="61" width="12" height="12" rx="2.5" fill="#161b22"><title>0 on 2026-07-27</title></rect>
    <rect x="666" y="76" width="12" height="12" rx="2.5" fill="#161b22"><title>0 on 2026-07-28</title></rect>
    <rect x="666" y="91" width="12" height="12" rx="2.5" fill="#161b22"><title>0 on 2026-07-29</title></rect>
    <rect x="666" y="106" width="12" height="12" rx="2.5" fill="#161b22"><title>0 on 2026-07-30</title></rect>
    <rect x="666" y="121" width="12" height="12" rx="2.5" fill="#161b22"><title>0 on 2026-07-31</title></rect>
    <rect x="666" y="136" width="12" height="12" rx="2.5" fill="#161b22"><title>0 on 2026-08-01</title></rect>
  </g>
  <g class="wk" style="animation-delay:1.505s">
    <rect x="681" y="46" width="12" height="12" rx="2.5" fill="#161b22"><title>0 on 2026-08-02</title></rect>
    <rect x="681" y="61" width="12" height="12" rx="2.5" fill="#161b22"><title>0 on 2026-08-03</title></rect>
    <rect x="681" y="76" width="12" height="12" rx="2.5" fill="#161b22"><title>0 on 2026-08-04</title></rect>
    <rect x="681" y="91" width="12" height="12" rx="2.5" fill="#161b22"><title>0 on 2026-08-05</title></rect>
    <rect x="681" y="106" width="12" height="12" rx="2.5" fill="#161b22"><title>0 on 2026-08-06</title></rect>
    <rect x="681" y="121" width="12" height="12" rx="2.5" fill="#161b22"><title>0 on 2026-08-07</title></rect>
    <rect x="681" y="136" width="12" height="12" rx="2.5" fill="#0e4429"><title>1 on 2026-08-08</title></rect>
  </g>
  <g class="wk" style="animation-delay:1.540s">
    <rect x="696" y="46" width="12" height="12" rx="2.5" fill="#161b22"><title>0 on 2026-08-09</title></rect>
    <rect x="696" y="61" width="12" height="12" rx="2.5" fill="#26a641"><title>8 on 2026-08-10</title></rect>
    <rect x="696" y="76" width="12" height="12" rx="2.5" fill="#0e4429"><title>2 on 2026-08-11</title></rect>
    <rect x="696" y="91" width="12" height="12" rx="2.5" fill="#161b22"><title>0 on 2026-08-12</title></rect>
    <rect x="696" y="106" width="12" height="12" rx="2.5" fill="#161b22"><title>0 on 2026-08-13</title></rect>
    <rect x="696" y="121" width="12" height="12" rx="2.5" fill="#161b22"><title>0 on 2026-08-14</title></rect>
    <rect x="696" y="136" width="12" height="12" rx="2.5" fill="#161b22"><title>0 on 2026-08-15</title></rect>
  </g>
  <g class="wk" style="animation-delay:1.575s">
    <rect x="711" y="46" width="12" height="12" rx="2.5" fill="#161b22"><title>0 on 2026-08-16</title></rect>
    <rect x="711" y="61" width="12" height="12" rx="2.5" fill="#161b22"><title>0 on 2026-08-17</title></rect>
    <rect x="711" y="76" width="12" height="12" rx="2.5" fill="#161b22"><title>0 on 2026-08-18</title></rect>
    <rect x="711" y="91" width="12" height="12" rx="2.5" fill="#0e4429"><title>1 on 2026-08-19</title></rect>
    <rect x="711" y="106" width="12" height="12" rx="2.5" fill="#161b22"><title>0 on 2026-08-20</title></rect>
    <rect x="711" y="121" width="12" height="12" rx="2.5" fill="#161b22"><title>0 on 2026-08-21</title></rect>
    <rect x="711" y="136" width="12" height="12" rx="2.5" fill="#161b22"><title>0 on 2026-08-22</title></rect>
  </g>
  <g class="wk" style="animation-delay:1.610s">
    <rect x="726" y="46" width="12" height="12" rx="2.5" fill="#161b22"><title>0 on 2026-08-23</title></rect>
    <rect x="726" y="61" width="12" height="12" rx="2.5" fill="#161b22"><title>0 on 2026-08-24</title></rect>
    <rect x="726" y="76" width="12" height="12" rx="2.5" fill="#161b22"><title>0 on 2026-08-25</title></rect>
    <rect x="726" y="91" width="12" height="12" rx="2.5" fill="#161b22"><title>0 on 2026-08-26</title></rect>
    <rect x="726" y="106" width="12" height="12" rx="2.5" fill="#161b22"><title>0 on 2026-08-27</title></rect>
    <rect x="726" y="121" width="12" height="12" rx="2.5" fill="#161b22"><title>0 on 2026-08-28</title></rect>
    <rect x="726" y="136" width="12" height="12" rx="2.5" fill="#161b22"><title>0 on 2026-08-29</title></rect>
  </g>
  <g class="wk" style="animation-delay:1.645s">
    <rect x="741" y="46" width="12" height="12" rx="2.5" fill="#161b22"><title>0 on 2026-08-30</title></rect>
    <rect x="741" y="61" width="12" height="12" rx="2.5" fill="#161b22"><title>0 on 2026-08-31</title></rect>
    <rect x="741" y="76" width="12" height="12" rx="2.5" fill="#161b22"><title>0 on 2026-09-01</title></rect>
    <rect x="741" y="91" width="12" height="12" rx="2.5" fill="#161b22"><title>0 on 2026-09-02</title></rect>
    <rect x="741" y="106" width="12" height="12" rx="2.5" fill="#161b22"><title>0 on 2026-09-03</title></rect>
    <rect x="741" y="121" width="12" height="12" rx="2.5" fill="#161b22"><title>0 on 2026-09-04</title></rect>
    <rect x="741" y="136" width="12" height="12" rx="2.5" fill="#161b22"><title>0 on 2026-09-05</title></rect>
  </g>
  <g class="wk" style="animation-delay:1.680s">
    <rect x="756" y="46" width="12" height="12" rx="2.5" fill="#161b22"><title>0 on 2026-09-06</title></rect>
    <rect x="756" y="61" width="12" height="12" rx="2.5" fill="#161b22"><title>0 on 2026-09-07</title></rect>
    <rect x="756" y="76" width="12" height="12" rx="2.5" fill="#161b22"><title>0 on 2026-09-08</title></rect>
    <rect x="756" y="91" width="12" height="12" rx="2.5" fill="#161b22"><title>0 on 2026-09-09</title></rect>
    <rect x="756" y="106" width="12" height="12" rx="2.5" fill="#161b22"><title>0 on 2026-09-10</title></rect>
    <rect x="756" y="121" width="12" height="12" rx="2.5" fill="#161b22"><title>0 on 2026-09-11</title></rect>
    <rect x="756" y="136" width="12" height="12" rx="2.5" fill="#161b22"><title>0 on 2026-09-12</title></rect>
  </g>
  <g class="wk" style="animation-delay:1.715s">
    <rect x="771" y="46" width="12" height="12" rx="2.5" fill="#161b22"><title>0 on 2026-09-13</title></rect>
    <rect x="771" y="61" width="12" height="12" rx="2.5" fill="#161b22"><title>0 on 2026-09-14</title></rect>
    <rect x="771" y="76" width="12" height="12" rx="2.5" fill="#161b22"><title>0 on 2026-09-15</title></rect>
    <rect x="771" y="91" width="12" height="12" rx="2.5" fill="#161b22"><title>0 on 2026-09-16</title></rect>
    <rect x="771" y="106" width="12" height="12" rx="2.5" fill="#161b22"><title>0 on 2026-09-17</title></rect>
    <rect x="771" y="121" width="12" height="12" rx="2.5" fill="#161b22"><title>0 on 2026-09-18</title></rect>
    <rect x="771" y="136" width="12" height="12" rx="2.5" fill="#161b22"><title>0 on 2026-09-19</title></rect>
  </g>
  <g class="wk" style="animation-delay:1.750s">
    <rect x="786" y="46" width="12" height="12" rx="2.5" fill="#161b22"><title>0 on 2026-09-20</title></rect>
    <rect x="786" y="61" width="12" height="12" rx="2.5" fill="#39d353"><title>22 on 2026-09-21</title></rect>
    <rect x="786" y="76" width="12" height="12" rx="2.5" fill="#0e4429"><title>1 on 2026-09-22</title></rect>
    <rect x="786" y="91" width="12" height="12" rx="2.5" fill="#161b22"><title>0 on 2026-09-23</title></rect>
    <rect x="786" y="106" width="12" height="12" rx="2.5" fill="#69f0a0"><title>88 on 2026-09-24</title></rect>
    <rect x="786" y="121" width="12" height="12" rx="2.5" fill="#0e4429"><title>1 on 2026-09-25</title></rect>
    <rect x="786" y="136" width="12" height="12" rx="2.5" fill="#161b22"><title>0 on 2026-09-26</title></rect>
  </g>
  <g class="wk" style="animation-delay:1.785s">
    <rect x="801" y="46" width="12" height="12" rx="2.5" fill="#161b22"><title>0 on 2026-09-27</title></rect>
    <rect x="801" y="61" width="12" height="12" rx="2.5" fill="#0e4429"><title>3 on 2026-09-28</title></rect>
    <rect x="801" y="76" width="12" height="12" rx="2.5" fill="#161b22"><title>0 on 2026-09-29</title></rect>
    <rect x="801" y="91" width="12" height="12" rx="2.5" fill="#161b22"><title>0 on 2026-09-30</title></rect>
    <rect x="801" y="106" width="12" height="12" rx="2.5" fill="#0e4429"><title>1 on 2026-10-01</title></rect>
    <rect x="801" y="121" width="12" height="12" rx="2.5" fill="#161b22"><title>0 on 2026-10-02</title></rect>
    <rect x="801" y="136" width="12" height="12" rx="2.5" fill="#26a641"><title>10 on 2026-10-03</title></rect>
  </g>
  <g class="wk" style="animation-delay:1.820s">
    <rect x="816" y="46" width="12" height="12" rx="2.5" fill="#161b22"><title>0 on 2026-10-04</title></rect>
    <rect x="816" y="61" width="12" height="12" rx="2.5" fill="#161b22"><title>0 on 2026-10-05</title></rect>
    <rect x="816" y="76" width="12" height="12" rx="2.5" fill="#006d32"><title>6 on 2026-10-06</title></rect>
    <rect x="816" y="91" width="12" height="12" rx="2.5" fill="#0e4429"><title>3 on 2026-10-07</title></rect>
  </g>
  <g class="fade" style="animation-delay:2.36s">
    <text x="691" y="189" text-anchor="end" fill="#8b949e">Less</text>
    <rect x="697" y="179" width="12" height="12" rx="2.5" fill="#161b22"/>
    <rect x="712" y="179" width="12" height="12" rx="2.5" fill="#0e4429"/>
    <rect x="727" y="179" width="12" height="12" rx="2.5" fill="#006d32"/>
    <rect x="742" y="179" width="12" height="12" rx="2.5" fill="#26a641"/>
    <rect x="757" y="179" width="12" height="12" rx="2.5" fill="#39d353"/>
    <rect x="772" y="179" width="12" height="12" rx="2.5" fill="#69f0a0"/>
    <text x="791" y="189" fill="#8b949e">More</text>
    <text x="36" y="189"><tspan fill="#8b949e">streak </tspan><tspan fill="#58a6ff">2d</tspan><tspan fill="#8b949e">  longest </tspan><tspan fill="#58a6ff">5d</tspan><tspan fill="#8b949e">  best day </tspan><tspan fill="#58a6ff">88 on 2026-09-24</tspan></text>
    <text x="36" y="209" fill="#8b949e" font-size="10">updated 2026-10-07 · github.com/KamiSama-97</text>
  </g>
</svg>
